# xmcd
#
# Track frame offsets: 
#        150
#        18590
#        38820
#        70995
#        87073
#        105710
#        119168
#        138925
#        155765
#        173613
#        191535
#        218435
#        240480
#        254088
#        282535
#        303053
#
# Disc length: 4352 seconds
#
# Revision: 2
# Processed by: cddbd v1.5.2PL0 Copyright (c) Steve Scherf et al.
# Submitted via: ExactAudioCopy v1.0b3
#
DISCID=e010fe10
DTITLE=西岡たかし - 西岡たかし 五つの赤い風船 CD-BOX Disc 4 西岡たかしソロアルバム 2 1977-78 VICS-
DTITLE=60113-7
DYEAR=2002
DGENRE=
TTITLE0=愛すコーヒー
TTITLE1=あなたの夢
TTITLE2=うろこ雲の絵
TTITLE3=バラのお嬢さん
TTITLE4=君は今が美しい
TTITLE5=ロバの耳
TTITLE6=風っ子
TTITLE7=それからね
TTITLE8=仔犬のシロ
TTITLE9=日曜日
TTITLE10=おかあさんの手
TTITLE11=汽車に乗り遅れた僕が
TTITLE12=赤ちゃんグモ
TTITLE13=モス
TTITLE14=一枚のレコード
TTITLE15=君のひとみの歌
EXTD=
EXTT0=
EXTT1=
EXTT2=
EXTT3=
EXTT4=
EXTT5=
EXTT6=
EXTT7=
EXTT8=
EXTT9=
EXTT10=
EXTT11=
EXTT12=
EXTT13=
EXTT14=
EXTT15=
PLAYORDER=
